<svg width="30" height="30" viewBox="0 0 30 30" fill="none" xmlns="http://www.w3.org/2000/svg">
<path d="M25.2539 18.7852C25.2539 18.5273 25.3242 18.2812 25.4473 18.0703C25.4824 18.0059 25.5293 17.9473 25.5703 17.8887C26.5899 16.3652 27.1875 14.543 27.1875 12.5977C27.2051 7.19531 22.6465 2.8125 17.0098 2.8125C12.0938 2.8125 7.99219 6.1582 7.03125 10.5996C6.89062 11.25 6.81445 11.9121 6.81445 12.6035C6.81445 18.0117 11.1973 22.5117 16.834 22.5117C17.7305 22.5117 18.9375 22.2422 19.5996 22.0605C20.2617 21.8789 20.918 21.6387 21.0879 21.5742C21.2578 21.5098 21.4453 21.4746 21.6328 21.4746C21.8438 21.4746 22.043 21.5156 22.2246 21.5918L25.5469 22.7695C25.5469 22.7695 25.6875 22.8281 25.7754 22.8281C26.0332 22.8281 26.2442 22.623 26.2442 22.3594C26.2442 22.3008 26.2149 22.2012 26.2149 22.2012L25.2539 18.7852Z" fill="#C4C4C4"/>
<path d="M18.6621 22.998C18.4512 23.0566 18.1816 23.1211 17.8887 23.1855C17.2734 23.3145 16.4883 23.4492 15.8965 23.4492C10.2598 23.4492 5.87695 18.9492 5.87695 13.541C5.87695 13.1543 5.91797 12.6621 5.96484 12.2871C6 12.0352 6.04102 11.7832 6.09961 11.5371C6.1582 11.2734 6.22852 11.0098 6.30469 10.752L5.83594 11.168C3.91406 12.8438 2.8125 15.2344 2.8125 17.7246C2.8125 19.4414 3.31055 21.0938 4.26563 22.5293C4.40039 22.7344 4.47656 22.8926 4.45312 22.998C4.42969 23.1035 3.75586 26.6309 3.75586 26.6309C3.7207 26.8008 3.78516 26.9707 3.91406 27.082C4.00195 27.1523 4.10742 27.1875 4.21289 27.1875C4.27148 27.1875 4.33008 27.1758 4.38281 27.1523L7.66992 25.8574C7.77539 25.8164 7.88672 25.793 8.00391 25.793C8.00391 25.793 8.14453 25.7812 8.37305 25.8691C9.48047 26.3027 10.7051 26.5723 11.9297 26.5723C14.6602 26.5723 17.2266 25.3945 18.9668 23.3438C18.9668 23.3438 19.1543 23.0859 19.3711 22.7812C19.1543 22.8574 18.9082 22.9336 18.6621 22.998Z" fill="#C4C4C4"/>
</svg>
