<svg width="30" height="30" viewBox="0 0 30 30" fill="#C4C4C4" xmlns="http://www.w3.org/2000/svg">
<path d="M9.40068 26.2489C10.1772 26.2346 10.795 25.5935 10.7807 24.817C10.7664 24.0405 10.1253 23.4226 9.34879 23.437C8.5723 23.4513 7.95444 24.0924 7.96877 24.8689C7.98309 25.6454 8.62418 26.2632 9.40068 26.2489Z" />
<path d="M23.9364 24.877C23.9549 24.1006 23.3405 23.4562 22.5641 23.4377C21.7876 23.4192 21.1432 24.0336 21.1247 24.81C21.1062 25.5864 21.7206 26.2308 22.4971 26.2493C23.2735 26.2678 23.9179 25.6534 23.9364 24.877Z" />
<path d="M27.1758 7.74617C27.1348 7.60555 27.0117 7.5118 26.8711 7.50008L7.78711 5.65438C7.62305 5.6368 7.42383 5.53133 7.34765 5.37899C7.125 4.96297 6.98437 4.7286 6.63281 4.28914C6.18164 3.73836 5.33203 3.75594 3.77344 3.74422C3.24609 3.73836 2.81836 4.04891 2.81836 4.57039C2.81836 5.08016 3.22266 5.39657 3.73242 5.39657C4.24219 5.39657 4.98047 5.42586 5.25586 5.50789C5.53125 5.58993 5.75391 6.0411 5.83594 6.43368C5.83594 6.43953 5.83594 6.44539 5.8418 6.45125C5.85351 6.52157 5.95898 7.04891 5.95898 7.05477L8.30273 19.4532C8.44336 20.3028 8.73047 21.0059 9.15234 21.545C9.64453 22.1778 10.2949 22.4942 11.0801 22.4942H24.9434C25.3887 22.4942 25.7695 22.1544 25.7871 21.7091C25.8105 21.2403 25.4355 20.8536 24.9668 20.8536H11.0684C10.9512 20.8536 10.7812 20.8536 10.582 20.6895C10.377 20.5138 10.0957 20.1095 9.9082 19.1661L9.65625 17.7774C9.65625 17.7598 9.66211 17.7481 9.67969 17.7423L25.9512 14.9884C26.1035 14.9649 26.2207 14.8419 26.2383 14.6837L27.1758 7.89852C27.1875 7.85164 27.1875 7.79891 27.1758 7.74617V7.74617Z" />
</svg>
