<svg width="19" height="21" viewBox="0 0 19 21" fill="none" xmlns="http://www.w3.org/2000/svg">
<path d="M9.74097 0.588281C9.65894 0.522656 9.54956 0.522656 9.46753 0.588281L0.936279 7.41328C0.887061 7.45703 0.854248 7.51719 0.854248 7.58281V20.1609C0.854248 20.2211 0.903467 20.2703 0.963623 20.2703H6.86987C6.93003 20.2703 6.97925 20.2211 6.97925 20.1609V14.3714C6.97925 14.3112 7.02847 14.262 7.08862 14.262H12.1199C12.18 14.262 12.2292 14.3112 12.2292 14.3714V20.1609C12.2292 20.2211 12.2785 20.2703 12.3386 20.2703H18.2449C18.305 20.2703 18.3542 20.2211 18.3542 20.1609V7.58281C18.3542 7.51719 18.3214 7.45156 18.2722 7.41328L9.74097 0.588281Z" fill="#C4C4C4"/>
</svg>
