<svg width="30" height="30" viewBox="0 0 30 30" fill="#C4C4C4" xmlns="http://www.w3.org/2000/svg">
<path d="M13.793 10.0898C13.793 9.42187 14.3379 8.92383 14.9941 8.92383C15.6621 8.92383 16.207 9.42187 16.207 10.0898C16.207 10.7578 15.6621 11.2617 14.9941 11.2617C14.3379 11.2617 13.793 10.7578 13.793 10.0898ZM13.875 12.1816H16.1133V20.625H13.875V12.1816Z" />
<path d="M15 4.45312C17.8184 4.45312 20.4668 5.54883 22.459 7.54102C24.4512 9.5332 25.5469 12.1816 25.5469 15C25.5469 17.8184 24.4512 20.4668 22.459 22.459C20.4668 24.4512 17.8184 25.5469 15 25.5469C12.1816 25.5469 9.5332 24.4512 7.54102 22.459C5.54883 20.4668 4.45312 17.8184 4.45312 15C4.45312 12.1816 5.54883 9.5332 7.54102 7.54102C9.5332 5.54883 12.1816 4.45312 15 4.45312ZM15 2.8125C8.26758 2.8125 2.8125 8.26758 2.8125 15C2.8125 21.7324 8.26758 27.1875 15 27.1875C21.7324 27.1875 27.1875 21.7324 27.1875 15C27.1875 8.26758 21.7324 2.8125 15 2.8125Z" />
</svg>
