<svg width="18" height="16" viewBox="0 0 18 16" fill="none" xmlns="http://www.w3.org/2000/svg">
<path d="M12.75 0.1875H12.7109C11.1602 0.1875 9.78906 1.00781 9 2.21875C8.21094 1.00781 6.83984 0.1875 5.28906 0.1875H5.25C2.83203 0.210938 0.875 2.17578 0.875 4.60156C0.875 6.04688 1.50781 8.09766 2.74219 9.78516C5.09375 13 9 15.8125 9 15.8125C9 15.8125 12.9062 13 15.2578 9.78516C16.4922 8.09766 17.125 6.04688 17.125 4.60156C17.125 2.17578 15.168 0.210938 12.75 0.1875ZM14.375 9.14062C12.7109 11.418 10.1758 13.5195 9 14.4375C7.82422 13.5195 5.28906 11.4141 3.625 9.13672C2.48047 7.57422 1.96875 5.73438 1.96875 4.60156C1.96875 3.71875 2.3125 2.89062 2.92969 2.26562C3.55078 1.64062 4.375 1.29297 5.25781 1.28516H5.29297C5.85156 1.28516 6.40625 1.42969 6.89844 1.70703C7.375 1.97656 7.78906 2.35938 8.08594 2.82031C8.28906 3.12891 8.63281 3.31641 9.00391 3.31641C9.375 3.31641 9.71875 3.12891 9.92188 2.82031C10.2227 2.35938 10.6328 1.97656 11.1094 1.70703C11.6016 1.42969 12.1562 1.28516 12.7148 1.28516H12.75C13.6289 1.29297 14.457 1.64062 15.0781 2.26562C15.6992 2.89062 16.0391 3.72266 16.0391 4.60156C16.0312 5.73438 15.5195 7.57422 14.375 9.14062Z" fill="black"/>
</svg>
