<svg width="21" height="19" viewBox="0 0 21 19" fill="none" xmlns="http://www.w3.org/2000/svg">
<path d="M19.7139 8.25012L12.8242 1.80481C12.7412 1.72669 12.6631 1.68274 12.5508 1.68762C12.3359 1.69739 12.0625 1.84876 12.0625 2.07825V5.31067C12.0625 5.40833 11.9844 5.49622 11.8867 5.51087C5.03614 6.56067 2.15039 11.6876 1.12989 17.0099C1.09082 17.2199 1.37403 17.4152 1.50586 17.2491C4.00586 14.0997 7.04785 12.0441 11.8574 12.005C11.9648 12.005 12.0625 12.132 12.0625 12.2394V15.4132C12.0625 15.755 12.5166 15.9064 12.7705 15.672L19.709 9.11438C19.8359 8.9972 19.875 8.86048 19.8799 8.70423C19.875 8.54798 19.8359 8.36731 19.7139 8.25012V8.25012Z" stroke="#C4C4C4" stroke-width="1.7"/>
</svg>
